<?xml version="1.0" encoding="UTF-8"?>
<svg id="Layer_1" data-name="Layer 1" xmlns="http://www.w3.org/2000/svg" viewBox="0 0 100 100">
	<path d="M69.78,79.88a54.77,54.77,0,0,1-14.59-1.67A24.35,24.35,0,0,1,42.4,69.85a13.11,13.11,0,0,1-2.95-7.94,14.61,14.61,0,0,1,4.44-11.79,13.61,13.61,0,0,1,8.27-3.87,14.46,14.46,0,0,1,14.35,6.8c.22.32.38.37.72.19q2.52-1.37,5.07-2.69c.45-.23.44-.45.2-.83a21.15,21.15,0,0,0-9.1-8.32,21.85,21.85,0,0,0-9.7-2.12,21,21,0,0,0-13.85,5.29A21.57,21.57,0,0,0,32.5,58.93a20.8,20.8,0,0,0,4.7,15.66A29.37,29.37,0,0,0,53,84.69a48.86,48.86,0,0,0,9.76,1.6A83.06,83.06,0,0,0,75.2,86c.32,0,.64,0,1,0,.16,0,.39,0,.42.17s-.23.27-.4.3c-1,.16-2,.32-3,.45a58.94,58.94,0,0,1-8.7.56,43.81,43.81,0,0,1-17.75-3.58,29.67,29.67,0,0,1-12-9.13,23.87,23.87,0,0,1-4.73-13.63,22.63,22.63,0,0,1,5.66-15.9,22.66,22.66,0,0,1,9.8-7,24.44,24.44,0,0,1,6.54-1.37A23.73,23.73,0,0,1,62.2,38.19c.31.12.46.05.6-.26.78-1.77,1.58-3.54,2.38-5.3.18-.39.14-.59-.3-.75a31.43,31.43,0,0,0-23.7.63A30.37,30.37,0,0,0,32.89,38a33.43,33.43,0,0,0-7.41,9.78A25.57,25.57,0,0,0,22.9,57.5a31.62,31.62,0,0,0,7.86,23.13,30.88,30.88,0,0,0,15.85,9.81,57.77,57.77,0,0,0,11.53,1.94,46.3,46.3,0,0,0,4.71.13c.22,0,.54,0,.54.25s-.31.24-.5.26a33.22,33.22,0,0,1-5.9.1,51.18,51.18,0,0,1-7.09-.84,38.4,38.4,0,0,1-15-5.87A34.18,34.18,0,0,1,22.59,71.29a31.37,31.37,0,0,1-2.21-9.46,29.24,29.24,0,0,1,.87-10.33A30.69,30.69,0,0,1,27.32,40a33.34,33.34,0,0,1,13-9.79A32.76,32.76,0,0,1,50.7,27.71a18,18,0,0,1,2.08-.09c.39,0,.52-.16.52-.54,0-1.92,0-3.83,0-5.75,0-.46-.19-.57-.61-.57a37.45,37.45,0,0,0-5.88.51,39.34,39.34,0,0,0-12.63,4.28,40.31,40.31,0,0,0-10.51,8.22,42.6,42.6,0,0,0-6.6,9.44A39.45,39.45,0,0,0,13.23,55a32.36,32.36,0,0,0,3.29,20.45A34.19,34.19,0,0,0,28.89,88.82c.61.39,1.26.74,1.88,1.12.17.1.47.17.34.42s-.37.1-.56,0a29.47,29.47,0,0,1-3.92-2.09,49.55,49.55,0,0,1-9.77-8A46,46,0,0,1,9.59,69.59a41.79,41.79,0,0,1-4.35-15A45.17,45.17,0,0,1,32,8.4a45.11,45.11,0,0,1,42.21,3.22A45.14,45.14,0,0,1,93.7,38.45,45.46,45.46,0,0,1,95,47.12,45,45,0,0,1,84.75,78.45a1.07,1.07,0,0,1-.71.4c-3.48.39-7,.8-10.48.94C72.21,79.84,70.86,79.85,69.78,79.88Z"/>
</svg>